<svg xmlns="http://www.w3.org/2000/svg" viewBox="0 0 238.71 238.72"><defs><style>.cls-1{fill:#ffd0ad;}.cls-2{fill:#a3e0ff;}.cls-3{fill:#b236a2;}</style></defs><title>icono_color</title><g id="Capa_2" data-name="Capa 2"><g id="Capa_1-2" data-name="Capa 1"><path class="cls-1" d="M82.9,223.62a51.57,51.57,0,0,0,72.92,0l47.28-47.29c-34.95,5.52-82.65,8.55-137.94,29.55Z"/><path class="cls-2" d="M235.11,138.31A51.57,51.57,0,0,0,223.62,82.9l-67.8-67.8a51.57,51.57,0,0,0-72.92,0L15.1,82.9a51.57,51.57,0,0,0,0,72.92l40.24,40.23q5-2.7,10.16-5.35C127.53,159,198.4,140.13,235.11,138.31Z"/><path class="cls-3" d="M109.94,122.6a15.56,15.56,0,0,0,3.31.67c1.11.11,2.21.16,3.32.16a27.89,27.89,0,0,0,8-1.14,28.89,28.89,0,0,0,7.2-3.27,26.91,26.91,0,0,0,6-5.18,27.35,27.35,0,0,0,4.3-6.78l20.72,20.82a56,56,0,0,1-9.07,10.05,57.63,57.63,0,0,1-11.08,7.57,55.75,55.75,0,0,1-12.54,4.71,56.91,56.91,0,0,1-13.52,1.61,56,56,0,0,1-40-16.48,56.93,56.93,0,0,1-12.17-18.49,60.87,60.87,0,0,1-4.46-23.57,62.87,62.87,0,0,1,4.46-24,54.25,54.25,0,0,1,30.2-30.46,57.24,57.24,0,0,1,22-4.25,55.54,55.54,0,0,1,13.57,1.66A56.82,56.82,0,0,1,142.73,41a57.72,57.72,0,0,1,11.14,7.62A56.43,56.43,0,0,1,163,58.67Zm14.5-58.33a16.12,16.12,0,0,0-3.88-.94,39.47,39.47,0,0,0-4-.2,28.2,28.2,0,0,0-10.93,2.12,26.11,26.11,0,0,0-8.91,6.06,28.53,28.53,0,0,0-6,9.48,34,34,0,0,0-2.18,12.49c0,1,0,2.21.16,3.52a37.61,37.61,0,0,0,.52,4c.24,1.35.53,2.64.88,3.88A14.3,14.3,0,0,0,91.49,108Z"/></g></g></svg>