<svg xmlns="http://www.w3.org/2000/svg" viewBox="0 0 316.39 113.14"><defs><style>.cls-1{fill:#b236a2;}.cls-2{fill:#bf9373;}.cls-3{fill:#ffd0ad;}.cls-4{fill:#a3e0ff;}</style></defs><title>logo_color</title><g id="Capa_2" data-name="Capa 2"><g id="Capa_1-2" data-name="Capa 1"><path class="cls-1" d="M137.27,54.13a4.39,4.39,0,0,0,.93.19c.3,0,.61,0,.92,0a7.78,7.78,0,0,0,2.22-.31,8.28,8.28,0,0,0,2-.91A7.9,7.9,0,0,0,145,51.7a7.77,7.77,0,0,0,1.2-1.89L152,55.6a15.71,15.71,0,0,1-2.53,2.8,16,16,0,0,1-3.08,2.11,15.36,15.36,0,0,1-3.5,1.31A15.68,15.68,0,0,1,128,57.68a15.92,15.92,0,0,1-3.39-5.15A16.85,16.85,0,0,1,123.34,46a17.44,17.44,0,0,1,1.24-6.69A15.59,15.59,0,0,1,128,34.11a15.4,15.4,0,0,1,5-3.31,15.91,15.91,0,0,1,6.13-1.19,15.41,15.41,0,0,1,3.78.47,15.68,15.68,0,0,1,3.5,1.32,16.21,16.21,0,0,1,3.1,2.12A15.44,15.44,0,0,1,152,36.34Zm4-16.24a4.72,4.72,0,0,0-1.08-.26c-.36,0-.73-.05-1.11-.05a7.73,7.73,0,0,0-3,.59,7.17,7.17,0,0,0-2.48,1.68,8,8,0,0,0-1.66,2.64,9.34,9.34,0,0,0-.61,3.48c0,.29,0,.62,0,1a8.42,8.42,0,0,0,.14,1.11q.1.57.24,1.08a4.4,4.4,0,0,0,.38.93Z"/><path class="cls-1" d="M163.87,61.69H156V30.8h1.9l2.6,3a13.44,13.44,0,0,1,4.31-2.67,13.61,13.61,0,0,1,5-.94,13.34,13.34,0,0,1,5.34,1.08,14,14,0,0,1,4.38,3,14.12,14.12,0,0,1,3,4.42A13.5,13.5,0,0,1,183.6,44V61.69h-7.87V44a5.8,5.8,0,0,0-.47-2.3A6,6,0,0,0,174,39.85a6,6,0,0,0-1.88-1.26,5.64,5.64,0,0,0-2.28-.47,6.11,6.11,0,0,0-4.24,1.73,6,6,0,0,0-1.27,1.89,5.8,5.8,0,0,0-.46,2.3Z"/><path class="cls-1" d="M198.49,22.4a5,5,0,0,1-.42,2.05,5.23,5.23,0,0,1-1.14,1.66,5.42,5.42,0,0,1-1.69,1.12,5.26,5.26,0,0,1-4.12,0,5.15,5.15,0,0,1-1.68-1.12,5.34,5.34,0,0,1-1.12-1.66,5.16,5.16,0,0,1,0-4.08,5.23,5.23,0,0,1,2.8-2.8,5.26,5.26,0,0,1,4.12,0,5.63,5.63,0,0,1,1.69,1.13,5.27,5.27,0,0,1,1.14,1.67A5,5,0,0,1,198.49,22.4Zm-1.36,39.29H189.2V30.8h7.93Z"/><path class="cls-1" d="M233,57.8a15.1,15.1,0,0,1-1.24,6.11,15.54,15.54,0,0,1-3.39,5,16,16,0,0,1-5,3.38,15.35,15.35,0,0,1-6.12,1.24l-4-.06V65.59l3.9,0a9.31,9.31,0,0,0,3.14-.47,6.4,6.4,0,0,0,2.19-1.3A6.56,6.56,0,0,0,224,62a11.47,11.47,0,0,0,.85-2.25A3.49,3.49,0,0,1,223.5,61a9.74,9.74,0,0,1-1.92.77,11.41,11.41,0,0,1-2.2.42,20.2,20.2,0,0,1-2.11.12,16.7,16.7,0,0,1-6.14-1.13,15.08,15.08,0,0,1-5-3.21,14.9,14.9,0,0,1-3.38-5.12A17.86,17.86,0,0,1,201.49,46a16.75,16.75,0,0,1,1.24-6.49,15.73,15.73,0,0,1,8.4-8.63,15.45,15.45,0,0,1,6.14-1.24,12,12,0,0,1,3,.38,15.45,15.45,0,0,1,2.85,1,17.11,17.11,0,0,1,2.64,1.56,21,21,0,0,1,2.35,1.93l3.06-3.67H233ZM225.11,46a8.24,8.24,0,0,0-.62-3.13,8.77,8.77,0,0,0-1.69-2.68,8.35,8.35,0,0,0-2.49-1.88,6.81,6.81,0,0,0-3-.7,8.55,8.55,0,0,0-3.05.54,7,7,0,0,0-2.48,1.62,7.67,7.67,0,0,0-1.66,2.64,10,10,0,0,0-.6,3.59,9.55,9.55,0,0,0,.6,3.48,8.07,8.07,0,0,0,1.66,2.64,7.17,7.17,0,0,0,2.48,1.68,7.78,7.78,0,0,0,3.05.59,6.81,6.81,0,0,0,3-.7,8.35,8.35,0,0,0,2.49-1.88,8.77,8.77,0,0,0,1.69-2.68A8.24,8.24,0,0,0,225.11,46Z"/><path class="cls-1" d="M278.33,61.69h-7.84V42.08a4,4,0,0,0-4-4,3.85,3.85,0,0,0-2.75,1.16,4,4,0,0,0-1.14,2.8V61.69h-7.88V42.08a3.94,3.94,0,0,0-.3-1.53,4,4,0,0,0-3.65-2.43,3.85,3.85,0,0,0-2.75,1.16,4,4,0,0,0-1.14,2.8V61.69H239V30.8H241l2.13,2.36A12.8,12.8,0,0,1,246.7,31a11.3,11.3,0,0,1,4.11-.76,11.48,11.48,0,0,1,4.23.81,8.64,8.64,0,0,1,3.62,2.79,8.13,8.13,0,0,1,1.64-1.67,9.54,9.54,0,0,1,1.95-1.12,9.21,9.21,0,0,1,2.12-.62,12.29,12.29,0,0,1,2.16-.19,11.68,11.68,0,0,1,4.61.92,11.77,11.77,0,0,1,6.27,6.29,11.72,11.72,0,0,1,.92,4.62Z"/><path class="cls-1" d="M314,61.69h-1.91L309,57.45a26,26,0,0,1-2.38,1.89A16.85,16.85,0,0,1,304,60.87a16.43,16.43,0,0,1-2.85,1,11.76,11.76,0,0,1-3,.38,17,17,0,0,1-6.13-1.1,14.39,14.39,0,0,1-5-3.19,15,15,0,0,1-3.39-5.12A17.94,17.94,0,0,1,282.43,46a17.19,17.19,0,0,1,1.24-6.62,15.84,15.84,0,0,1,3.39-5.18,15.27,15.27,0,0,1,5-3.36,15.69,15.69,0,0,1,6.13-1.2,12,12,0,0,1,3,.38A15.45,15.45,0,0,1,304,31a16.65,16.65,0,0,1,2.64,1.56A21,21,0,0,1,309,34.52l3.06-3.67H314ZM306.05,46a8.05,8.05,0,0,0-.62-3.13,8.93,8.93,0,0,0-1.68-2.68,8.52,8.52,0,0,0-2.5-1.88,6.78,6.78,0,0,0-3-.7,8.59,8.59,0,0,0-3,.54,7.11,7.11,0,0,0-2.48,1.62A7.67,7.67,0,0,0,291,42.38a11,11,0,0,0,0,7.18,7.67,7.67,0,0,0,1.66,2.64,7.11,7.11,0,0,0,2.48,1.62,8.59,8.59,0,0,0,3,.54,6.78,6.78,0,0,0,3-.7,8.52,8.52,0,0,0,2.5-1.88,8.93,8.93,0,0,0,1.68-2.68A8.05,8.05,0,0,0,306.05,46Z"/><path class="cls-2" d="M130.45,90.23A4.32,4.32,0,0,1,127.39,89a4.28,4.28,0,0,1-.94-1.38,4.34,4.34,0,0,1-.33-1.68V83h-1.21V80.55h1.21V76.67h2.46v3.88h3.75V83h-3.75V85.9a1.8,1.8,0,0,0,.54,1.32,1.91,1.91,0,0,0,.6.4,1.8,1.8,0,0,0,.73.15h1.88v2.46Z"/><path class="cls-2" d="M140.84,89.1a6.51,6.51,0,0,1-.64.51,4.57,4.57,0,0,1-.71.42,4.07,4.07,0,0,1-.76.28,3.09,3.09,0,0,1-.8.11,4.54,4.54,0,0,1-1.69-.32,4.08,4.08,0,0,1-2.31-2.32,4.92,4.92,0,0,1-.34-1.88V80.53h2.46V85.9a2.41,2.41,0,0,0,.15.87,1.93,1.93,0,0,0,.4.65,1.75,1.75,0,0,0,.6.4,1.93,1.93,0,0,0,.73.13,1.65,1.65,0,0,0,.72-.17,2.22,2.22,0,0,0,.59-.47,2.2,2.2,0,0,0,.4-.66,1.92,1.92,0,0,0,.14-.75V80.53h2.48v9.7h-.6Z"/><path class="cls-2" d="M149.47,90.23h-5.66V87.77h5.66a.58.58,0,0,0,.43-.18.6.6,0,0,0,.18-.44.34.34,0,0,0-.18-.34,1.1,1.1,0,0,0-.43-.08h-2.58a2.84,2.84,0,0,1-1.2-.25,3,3,0,0,1-1-.66,3.13,3.13,0,0,1-.66-1,3.07,3.07,0,0,1-.24-1.21,3,3,0,0,1,.24-1.2,3.08,3.08,0,0,1,1.64-1.64,3,3,0,0,1,1.2-.24h5V83h-5a.61.61,0,0,0-.61.61.61.61,0,0,0,.18.45.59.59,0,0,0,.43.19h2.58a3.35,3.35,0,0,1,1.19.21,3,3,0,0,1,1,.59,2.85,2.85,0,0,1,.91,2.08,3.08,3.08,0,0,1-3.08,3.08Z"/><path class="cls-2" d="M162.19,90.23h-2.47V83h-1.2V80.53h1.2v-.46a4.1,4.1,0,0,1,.34-1.68A4.42,4.42,0,0,1,161,77a4.83,4.83,0,0,1,1.38-.92,4.18,4.18,0,0,1,1.69-.34h1.86v2.46h-1.86a2,2,0,0,0-1.33.53,2,2,0,0,0-.39.59,1.85,1.85,0,0,0-.15.74v.46h3V83h-3Z"/><path class="cls-2" d="M169.67,77.9a1.71,1.71,0,0,1-.49,1.16,1.77,1.77,0,0,1-.53.36,1.79,1.79,0,0,1-.65.13,1.75,1.75,0,0,1-.65-.13,1.61,1.61,0,0,1-.52-.36,1.73,1.73,0,0,1-.36-.52,1.64,1.64,0,0,1,0-1.28,1.67,1.67,0,0,1,.88-.88,1.57,1.57,0,0,1,.65-.13,1.61,1.61,0,0,1,.65.13,2,2,0,0,1,.53.35,1.58,1.58,0,0,1,.35.53A1.53,1.53,0,0,1,169.67,77.9Zm-.43,12.33h-2.49v-9.7h2.49Z"/><path class="cls-2" d="M173.6,90.23h-2.48v-9.7h.6l.82,1a4,4,0,0,1,1.35-.84,4.23,4.23,0,0,1,1.58-.3,4.23,4.23,0,0,1,3.05,1.28,4.1,4.1,0,0,1,.93,1.38,4.18,4.18,0,0,1,.34,1.69v5.54h-2.47V84.69a1.79,1.79,0,0,0-.15-.72,1.84,1.84,0,0,0-.39-.59,2,2,0,0,0-.59-.4,1.83,1.83,0,0,0-1.45,0,1.91,1.91,0,0,0-.6.4,1.87,1.87,0,0,0-.4.59,1.78,1.78,0,0,0-.14.72Z"/><path class="cls-2" d="M190.94,90.23h-.6l-1-1.33a8.79,8.79,0,0,1-.74.6,6.87,6.87,0,0,1-.83.48,5.92,5.92,0,0,1-.89.32,3.71,3.71,0,0,1-.93.12,5.37,5.37,0,0,1-1.93-.35,4.53,4.53,0,0,1-1.57-1,4.68,4.68,0,0,1-1.07-1.61A5.62,5.62,0,0,1,181,85.3a5.39,5.39,0,0,1,.39-2.08,5.07,5.07,0,0,1,1.07-1.63,4.81,4.81,0,0,1,1.57-1,5,5,0,0,1,1.93-.38,3.71,3.71,0,0,1,.93.12,4.86,4.86,0,0,1,.9.33,6.87,6.87,0,0,1,.83.48,7.15,7.15,0,0,1,.73.61l1-1.15h.6Zm-2.49-4.93a2.52,2.52,0,0,0-.19-1,3,3,0,0,0-.53-.85,2.86,2.86,0,0,0-.79-.59,2.21,2.21,0,0,0-.95-.22,2.77,2.77,0,0,0-1,.17,2.29,2.29,0,0,0-.78.51,2.4,2.4,0,0,0-.52.83,3.46,3.46,0,0,0,0,2.26,2.45,2.45,0,0,0,.52.82,2,2,0,0,0,.78.51,2.55,2.55,0,0,0,1,.17,2.07,2.07,0,0,0,.95-.22,2.68,2.68,0,0,0,.79-.59,2.79,2.79,0,0,0,.53-.84A2.55,2.55,0,0,0,188.45,85.3Z"/><path class="cls-2" d="M195.3,90.23h-2.47v-9.7h.59l.82,1a4.14,4.14,0,0,1,1.35-.84,4.27,4.27,0,0,1,1.58-.3,4.31,4.31,0,0,1,1.68.34,4.51,4.51,0,0,1,1.38.94,4.37,4.37,0,0,1,1.26,3.07v5.54H199V84.69a2,2,0,0,0-.14-.72,1.87,1.87,0,0,0-.4-.59,2,2,0,0,0-.59-.4,1.72,1.72,0,0,0-.72-.15,1.8,1.8,0,0,0-.73.15,1.91,1.91,0,0,0-.6.4,1.87,1.87,0,0,0-.4.59,2,2,0,0,0-.14.72Z"/><path class="cls-2" d="M210.82,90.23h-8.08L206.82,83h-4.08V80.55h8.08l-4.08,7.22h4.08Z"/><path class="cls-2" d="M221.44,90.23h-.6l-1-1.33a7.58,7.58,0,0,1-.75.6,6.07,6.07,0,0,1-.82.48,5.66,5.66,0,0,1-.9.32,3.57,3.57,0,0,1-.92.12,5.34,5.34,0,0,1-1.93-.35,4.57,4.57,0,0,1-1.58-1,4.66,4.66,0,0,1-1.06-1.61,5.62,5.62,0,0,1-.39-2.16,5.39,5.39,0,0,1,.39-2.08A5,5,0,0,1,213,81.59a4.85,4.85,0,0,1,1.58-1,5,5,0,0,1,1.93-.38,3.71,3.71,0,0,1,.93.12,4.52,4.52,0,0,1,.89.33,6.18,6.18,0,0,1,.83.48,6.32,6.32,0,0,1,.74.61l1-1.15h.6ZM219,85.3a2.53,2.53,0,0,0-.2-1,2.77,2.77,0,0,0-.53-.85,2.68,2.68,0,0,0-.78-.59,2.24,2.24,0,0,0-.95-.22,2.77,2.77,0,0,0-1,.17,2.29,2.29,0,0,0-.78.51,2.4,2.4,0,0,0-.52.83,3.46,3.46,0,0,0,0,2.26,2.45,2.45,0,0,0,.52.82,2,2,0,0,0,.78.51,2.55,2.55,0,0,0,1,.17,2.1,2.1,0,0,0,.95-.22,2.51,2.51,0,0,0,.78-.59,2.61,2.61,0,0,0,.53-.84A2.56,2.56,0,0,0,219,85.3Z"/><path class="cls-2" d="M228.65,90.23H223V87.77h5.65a.62.62,0,0,0,.44-.18.6.6,0,0,0,.18-.44.34.34,0,0,0-.18-.34,1.19,1.19,0,0,0-.44-.08h-2.57a2.91,2.91,0,0,1-1.21-.25,3.13,3.13,0,0,1-1-.66,3.29,3.29,0,0,1-.65-1,3.07,3.07,0,0,1-.24-1.21,3,3,0,0,1,.24-1.2,3,3,0,0,1,1.63-1.64,3.07,3.07,0,0,1,1.21-.24h5V83h-5a.6.6,0,0,0-.44.18.58.58,0,0,0-.18.43.63.63,0,0,0,.62.64h2.57a3.44,3.44,0,0,1,1.2.21A2.9,2.9,0,0,1,231.49,86a2.77,2.77,0,0,1,.24,1.16,3,3,0,0,1-.24,1.2,3.22,3.22,0,0,1-.67,1,3,3,0,0,1-1,.66A3.06,3.06,0,0,1,228.65,90.23Z"/><path class="cls-2" d="M236.09,89.31a5.4,5.4,0,0,1-.08.86,5,5,0,0,1-.24.9,4.27,4.27,0,0,1-.44.85,2.67,2.67,0,0,1-.65.69l-1-.69a2.82,2.82,0,0,0,.39-.55,2.5,2.5,0,0,0,.19-.52,1.67,1.67,0,0,1-.5-.19,1.36,1.36,0,0,1-.41-.34,1.64,1.64,0,0,1-.27-.46,1.45,1.45,0,0,1-.1-.55,1.53,1.53,0,0,1,.12-.6,1.49,1.49,0,0,1,.34-.49,1.58,1.58,0,0,1,.48-.33,1.59,1.59,0,0,1,1.21,0,1.56,1.56,0,0,1,.5.33,1.63,1.63,0,0,1,.33.49A1.53,1.53,0,0,1,236.09,89.31Z"/><path class="cls-2" d="M247,87.86l.29.06h.29a2.32,2.32,0,0,0,.7-.1,2.34,2.34,0,0,0,1.15-.73,2.35,2.35,0,0,0,.38-.6l1.81,1.82a4.73,4.73,0,0,1-.79.88,4.88,4.88,0,0,1-1,.66,5.21,5.21,0,0,1-1.1.42,5.08,5.08,0,0,1-1.18.14,4.94,4.94,0,0,1-1.92-.38A5,5,0,0,1,244.07,89,5.11,5.11,0,0,1,243,87.36a5.32,5.32,0,0,1-.39-2.06,5.46,5.46,0,0,1,.39-2.1,4.7,4.7,0,0,1,1.06-1.62,4.85,4.85,0,0,1,1.58-1,5.13,5.13,0,0,1,1.92-.37,4.73,4.73,0,0,1,1.19.15,4.86,4.86,0,0,1,1.1.41,4.93,4.93,0,0,1,1,.67,4.75,4.75,0,0,1,.8.88Zm1.27-5.1a1.4,1.4,0,0,0-.34-.08l-.35,0a2.34,2.34,0,0,0-.95.19,2.21,2.21,0,0,0-.78.53,2.34,2.34,0,0,0-.52.83,2.86,2.86,0,0,0-.19,1.09c0,.09,0,.19,0,.31s0,.23,0,.34,0,.24.08.34a1.1,1.1,0,0,0,.12.29Z"/><path class="cls-2" d="M255.34,90.23h-2.47v-9.7h.6l.81,1a4.08,4.08,0,0,1,1.36-.84,4.29,4.29,0,0,1,3.25,0,4.28,4.28,0,0,1,1.38.94A4.42,4.42,0,0,1,261.2,83a4.18,4.18,0,0,1,.34,1.69v5.54h-2.47V84.69a1.79,1.79,0,0,0-.15-.72,1.71,1.71,0,0,0-.4-.59,1.87,1.87,0,0,0-.59-.4,1.71,1.71,0,0,0-.71-.15,1.85,1.85,0,0,0-.74.15,2,2,0,0,0-.59.4,1.87,1.87,0,0,0-.4.59,1.79,1.79,0,0,0-.15.72Z"/><path class="cls-2" d="M277.86,85.3a5.19,5.19,0,0,1-.39,2,4.9,4.9,0,0,1-1.06,1.62A4.87,4.87,0,0,1,271,90a5,5,0,0,1-2.64-2.7,5.19,5.19,0,0,1-.39-2,5.31,5.31,0,0,1,.39-2,5,5,0,0,1,2.64-2.7,4.79,4.79,0,0,1,1.93-.39,5,5,0,0,1,1.93.37,4.54,4.54,0,0,1,1.57,1,4.9,4.9,0,0,1,1.06,1.62A5.51,5.51,0,0,1,277.86,85.3Zm-2.49,0a2.85,2.85,0,0,0-.19-1.08,2.56,2.56,0,0,0-.53-.84,2.34,2.34,0,0,0-.79-.53,2.5,2.5,0,0,0-1.91,0,2.21,2.21,0,0,0-.78.53,2.54,2.54,0,0,0-.52.84,2.85,2.85,0,0,0-.19,1.08,2.75,2.75,0,0,0,.19,1,2.6,2.6,0,0,0,.52.83,2.43,2.43,0,0,0,.78.56,2.23,2.23,0,0,0,1,.2,2.37,2.37,0,0,0,.95-.19,2.34,2.34,0,0,0,.79-.53,2.62,2.62,0,0,0,.53-.83A2.92,2.92,0,0,0,275.37,85.3Z"/><path class="cls-2" d="M281.7,90.23h-2.47v-9.7h.6l.81,1.15a4.22,4.22,0,0,1,1.36-.83,4.27,4.27,0,0,1,1.58-.3h2.18V83h-2.18a1.84,1.84,0,0,0-.74.14,1.86,1.86,0,0,0-1,1,1.8,1.8,0,0,0-.15.73Z"/><path class="cls-2" d="M296.1,90.23h-.59l-1-1.33q-.36.31-.75.6A6.18,6.18,0,0,1,293,90a5.92,5.92,0,0,1-.89.32,3.71,3.71,0,0,1-.93.12,4.88,4.88,0,0,1-3.5-1.46,4.92,4.92,0,0,1-1.07-1.62,5.53,5.53,0,0,1,0-4.08,5.07,5.07,0,0,1,1.07-1.63,4.84,4.84,0,0,1,3.5-1.47,3.88,3.88,0,0,1,.67.06,3.08,3.08,0,0,1,.68.17,2.8,2.8,0,0,1,.62.32,1.9,1.9,0,0,1,.49.49V76.67h2.49Zm-2.49-4.93a2.52,2.52,0,0,0-.19-1,3,3,0,0,0-.53-.85,2.72,2.72,0,0,0-.79-.59,2.17,2.17,0,0,0-1-.22,2.56,2.56,0,0,0-1,.18,2.28,2.28,0,0,0-.77.52,2.46,2.46,0,0,0-.53.83,3.23,3.23,0,0,0-.19,1.11,2.87,2.87,0,0,0,.19,1,2.61,2.61,0,0,0,.53.84,2.3,2.3,0,0,0,.77.58,2.39,2.39,0,0,0,1,.2,2,2,0,0,0,1-.22,2.56,2.56,0,0,0,.79-.59,2.79,2.79,0,0,0,.53-.84A2.55,2.55,0,0,0,293.61,85.3Z"/><path class="cls-2" d="M301.85,87.86a1.36,1.36,0,0,0,.29.06h.29a2.54,2.54,0,0,0,1.32-.38,2.57,2.57,0,0,0,.53-.45,2.31,2.31,0,0,0,.37-.6l1.82,1.82a4.79,4.79,0,0,1-.8.88,4.61,4.61,0,0,1-1,.66,5.13,5.13,0,0,1-1.09.42,5.21,5.21,0,0,1-1.18.14,4.87,4.87,0,0,1-3.5-1.44,5.14,5.14,0,0,1-1.07-1.62,5.32,5.32,0,0,1-.39-2.06,5.46,5.46,0,0,1,.39-2.1,4.72,4.72,0,0,1,1.07-1.62,4.81,4.81,0,0,1,1.57-1,5.14,5.14,0,0,1,1.93-.37,4.66,4.66,0,0,1,1.18.15,4.53,4.53,0,0,1,1.1.41,5,5,0,0,1,1,.67,4.7,4.7,0,0,1,.79.88Zm1.26-5.1a1.32,1.32,0,0,0-.33-.08l-.35,0a2.38,2.38,0,0,0-1,.19,2.21,2.21,0,0,0-.78.53,2.49,2.49,0,0,0-.52.83A2.86,2.86,0,0,0,300,85.3c0,.09,0,.19,0,.31s0,.23.05.34a2.84,2.84,0,0,0,.08.34,1.6,1.6,0,0,0,.11.29Z"/><path class="cls-2" d="M310.2,90.23h-2.47v-9.7h.59l.82,1a4.14,4.14,0,0,1,1.35-.84,4.27,4.27,0,0,1,1.58-.3,4.31,4.31,0,0,1,1.68.34,4.51,4.51,0,0,1,1.38.94,4.37,4.37,0,0,1,1.26,3.07v5.54h-2.47V84.69a2,2,0,0,0-.14-.72,1.87,1.87,0,0,0-.4-.59,2,2,0,0,0-.59-.4,1.72,1.72,0,0,0-.72-.15,1.8,1.8,0,0,0-.73.15,1.91,1.91,0,0,0-.6.4,1.87,1.87,0,0,0-.4.59,2,2,0,0,0-.14.72Z"/><path class="cls-3" d="M39.29,106a24.43,24.43,0,0,0,34.56,0L96.26,83.57c-16.57,2.62-39.17,4.06-65.38,14Z"/><path class="cls-4" d="M111.43,65.55A24.43,24.43,0,0,0,106,39.29L73.85,7.16a24.43,24.43,0,0,0-34.56,0L7.16,39.29a24.43,24.43,0,0,0,0,34.56L26.23,92.92c1.57-.85,3.18-1.7,4.81-2.54C60.44,75.35,94,66.42,111.43,65.55Z"/><path class="cls-1" d="M52.11,58.11a7.82,7.82,0,0,0,1.57.32c.52,0,1,.07,1.57.07A13.18,13.18,0,0,0,59,58a13.65,13.65,0,0,0,3.41-1.55A12.58,12.58,0,0,0,65.29,54a13,13,0,0,0,2-3.22l9.82,9.87a26,26,0,0,1-4.3,4.76A27,27,0,0,1,67.6,69a25.92,25.92,0,0,1-5.94,2.23,26.84,26.84,0,0,1-6.41.77,26.6,26.6,0,0,1-19-7.81,27,27,0,0,1-5.77-8.77,28.79,28.79,0,0,1-2.11-11.17A29.7,29.7,0,0,1,30.5,32.82,26.19,26.19,0,0,1,36.27,24a25.93,25.93,0,0,1,8.54-5.65,27.19,27.19,0,0,1,10.44-2,26.57,26.57,0,0,1,6.43.78A26.93,26.93,0,0,1,72.93,23a26.94,26.94,0,0,1,4.32,4.79ZM59,30.46A7.45,7.45,0,0,0,57.14,30a16.59,16.59,0,0,0-1.89-.1,13.4,13.4,0,0,0-5.18,1,12.3,12.3,0,0,0-4.23,2.87A13.61,13.61,0,0,0,43,38.29a16.05,16.05,0,0,0-1,5.92c0,.49,0,1,.07,1.67a18.15,18.15,0,0,0,.25,1.89,17.06,17.06,0,0,0,.42,1.84,6.77,6.77,0,0,0,.63,1.57Z"/></g></g></svg>