<svg xmlns="http://www.w3.org/2000/svg" viewBox="0 0 193.05 75.45"><defs><style>.cls-1{fill:#b236a2;}.cls-2{fill:#bf9373;}</style></defs><title>text_color</title><g id="Capa_2" data-name="Capa 2"><g id="Capa_1-2" data-name="Capa 1"><path class="cls-1" d="M13.93,37a4.39,4.39,0,0,0,.93.19c.3,0,.61,0,.92,0A7.45,7.45,0,0,0,18,36.89a8,8,0,0,0,2-.9,7.5,7.5,0,0,0,1.68-1.45,7.4,7.4,0,0,0,1.2-1.89l5.76,5.8a15.62,15.62,0,0,1-2.52,2.8,15.66,15.66,0,0,1-10.34,3.87A15.56,15.56,0,0,1,9.65,43.9a15.3,15.3,0,0,1-5-3.37,15.92,15.92,0,0,1-3.39-5.15A16.89,16.89,0,0,1,0,28.82a17.4,17.4,0,0,1,1.24-6.69A15.48,15.48,0,0,1,4.63,17a15.32,15.32,0,0,1,5-3.32,16.09,16.09,0,0,1,6.13-1.18,15.9,15.9,0,0,1,3.78.46,16,16,0,0,1,9.14,6.26Zm4-16.24a4.84,4.84,0,0,0-1.08-.26,10,10,0,0,0-1.11-.06,7.92,7.92,0,0,0-3,.59,7.38,7.38,0,0,0-2.49,1.69A7.89,7.89,0,0,0,8.6,25.34,9.34,9.34,0,0,0,8,28.82c0,.29,0,.61,0,1s.08.73.15,1.11.15.73.24,1.08a3.85,3.85,0,0,0,.38.92Z"/><path class="cls-1" d="M40.53,44.54H32.65V13.64h1.91l2.59,3A14,14,0,0,1,46.5,13a13.41,13.41,0,0,1,5.34,1.08,13.8,13.8,0,0,1,4.38,3,14.07,14.07,0,0,1,3,4.41,13.57,13.57,0,0,1,1.08,5.38V44.54H52.38V26.88a5.75,5.75,0,0,0-.46-2.29,5.82,5.82,0,0,0-1.27-1.89,5.9,5.9,0,0,0-1.87-1.27A5.8,5.8,0,0,0,46.5,21a6.1,6.1,0,0,0-2.34.46,5.92,5.92,0,0,0-1.9,1.27A6,6,0,0,0,41,24.59a5.75,5.75,0,0,0-.46,2.29Z"/><path class="cls-1" d="M75.14,5.25a5.21,5.21,0,0,1-.41,2.05A5.34,5.34,0,0,1,73.59,9a5.6,5.6,0,0,1-1.69,1.12,5.29,5.29,0,0,1-4.13,0A5.38,5.38,0,0,1,66.1,9,5.28,5.28,0,0,1,65,7.3a5,5,0,0,1-.42-2,5,5,0,0,1,.42-2A5.15,5.15,0,0,1,66.1,1.54,5.38,5.38,0,0,1,67.77.42a5.29,5.29,0,0,1,4.13,0,5.6,5.6,0,0,1,1.69,1.12,5.2,5.2,0,0,1,1.55,3.71ZM73.79,44.54H65.86V13.64h7.93Z"/><path class="cls-1" d="M109.7,40.64a15.12,15.12,0,0,1-1.24,6.12,16,16,0,0,1-3.39,5,16.14,16.14,0,0,1-5,3.38,15.37,15.37,0,0,1-6.13,1.24l-4-.06V48.43l3.89.06A9.12,9.12,0,0,0,97,48a6.33,6.33,0,0,0,3.62-3.18,11.47,11.47,0,0,0,.85-2.25,3.42,3.42,0,0,1-1.33,1.22,8.88,8.88,0,0,1-1.91.78A13.16,13.16,0,0,1,96,45a20.24,20.24,0,0,1-2.12.12A16.69,16.69,0,0,1,87.79,44a14.67,14.67,0,0,1-8.41-8.34,18,18,0,0,1-1.24-6.83,16.93,16.93,0,0,1,1.24-6.49,16.36,16.36,0,0,1,3.39-5.2,15.84,15.84,0,0,1,5-3.43,15.44,15.44,0,0,1,6.13-1.24,12,12,0,0,1,3,.38,14.85,14.85,0,0,1,2.86,1,18.42,18.42,0,0,1,2.64,1.55,21.06,21.06,0,0,1,2.35,1.94l3.06-3.67h1.9Zm-7.93-11.82a8.24,8.24,0,0,0-.62-3.13A9,9,0,0,0,99.46,23,8.49,8.49,0,0,0,97,21.13a6.83,6.83,0,0,0-3-.71,8.54,8.54,0,0,0-3,.55,7,7,0,0,0-2.48,1.62,7.53,7.53,0,0,0-1.66,2.64,10,10,0,0,0-.61,3.59,9.49,9.49,0,0,0,.61,3.47,7.91,7.91,0,0,0,1.66,2.64,7.2,7.2,0,0,0,2.48,1.69,8,8,0,0,0,3,.59,6.7,6.7,0,0,0,3-.71,8.32,8.32,0,0,0,2.49-1.87A9,9,0,0,0,101.15,32,8.28,8.28,0,0,0,101.77,28.82Z"/><path class="cls-1" d="M155,44.54h-7.85V24.92a4,4,0,0,0-.3-1.53,3.89,3.89,0,0,0-.85-1.26,4.08,4.08,0,0,0-1.27-.86,3.94,3.94,0,0,0-1.53-.3,3.74,3.74,0,0,0-2.75,1.16,3.87,3.87,0,0,0-.84,1.26,4,4,0,0,0-.3,1.53V44.54h-7.88V24.92a4,4,0,0,0-.3-1.53,3.89,3.89,0,0,0-.85-1.26,4.08,4.08,0,0,0-1.27-.86,3.94,3.94,0,0,0-1.53-.3,3.8,3.8,0,0,0-1.51.3,3.73,3.73,0,0,0-1.24.86,3.87,3.87,0,0,0-.84,1.26,4,4,0,0,0-.3,1.53V44.54H115.7V13.64h1.91L119.74,16a12.8,12.8,0,0,1,3.62-2.15,11.3,11.3,0,0,1,4.11-.76,11.71,11.71,0,0,1,4.23.8,8.67,8.67,0,0,1,3.62,2.8A8.13,8.13,0,0,1,137,15a9.59,9.59,0,0,1,1.95-1.13,10.32,10.32,0,0,1,2.12-.62,13.3,13.3,0,0,1,2.16-.18,11.42,11.42,0,0,1,4.6.92,11.73,11.73,0,0,1,3.75,2.52,12,12,0,0,1,2.53,3.77,11.71,11.71,0,0,1,.92,4.61Z"/><path class="cls-1" d="M190.64,44.54h-1.9l-3.06-4.24a26,26,0,0,1-2.38,1.89,18.15,18.15,0,0,1-2.64,1.53,16.33,16.33,0,0,1-2.84,1,11.76,11.76,0,0,1-2.95.38,17,17,0,0,1-6.13-1.1,14.39,14.39,0,0,1-5-3.19,14.69,14.69,0,0,1-3.39-5.12,18,18,0,0,1-1.24-6.89,17.15,17.15,0,0,1,1.24-6.62A15.53,15.53,0,0,1,163.72,17a15.27,15.27,0,0,1,5-3.36,15.69,15.69,0,0,1,6.13-1.2,12,12,0,0,1,3,.38,14.76,14.76,0,0,1,2.85,1,17.39,17.39,0,0,1,2.64,1.55,21.06,21.06,0,0,1,2.35,1.94l3.06-3.67h1.9Zm-7.93-15.72a8.24,8.24,0,0,0-.62-3.13A8.81,8.81,0,0,0,180.4,23a8.49,8.49,0,0,0-2.49-1.87,6.79,6.79,0,0,0-3-.71,8.55,8.55,0,0,0-3.05.55,7,7,0,0,0-2.48,1.62,7.67,7.67,0,0,0-1.66,2.64,10,10,0,0,0-.6,3.59,10,10,0,0,0,.6,3.59,7.67,7.67,0,0,0,1.66,2.64,6.86,6.86,0,0,0,2.48,1.61,8.34,8.34,0,0,0,3.05.55,6.66,6.66,0,0,0,3-.71,8.32,8.32,0,0,0,2.49-1.87A8.77,8.77,0,0,0,182.09,32,8.28,8.28,0,0,0,182.71,28.82Z"/><path class="cls-2" d="M7.11,73.08a4.1,4.1,0,0,1-1.68-.34,4.42,4.42,0,0,1-1.38-.93,4.51,4.51,0,0,1-.94-1.38,4.36,4.36,0,0,1-.34-1.69V65.86H1.57V63.4h1.2V59.52H5.24V63.4H9v2.46H5.24v2.88a1.94,1.94,0,0,0,.14.73,1.76,1.76,0,0,0,.4.59,1.94,1.94,0,0,0,.6.41,1.8,1.8,0,0,0,.73.15H9v2.46Z"/><path class="cls-2" d="M17.5,72a6.51,6.51,0,0,1-.64.51,4.57,4.57,0,0,1-.71.42,4.35,4.35,0,0,1-.76.28,3.15,3.15,0,0,1-.81.1A4.52,4.52,0,0,1,12.9,73,4.31,4.31,0,0,1,11.52,72a4,4,0,0,1-.93-1.42,4.88,4.88,0,0,1-.34-1.88V63.38h2.46v5.36a2.42,2.42,0,0,0,.15.88,1.88,1.88,0,0,0,.4.64,1.62,1.62,0,0,0,.6.4,1.92,1.92,0,0,0,.72.14,1.55,1.55,0,0,0,.73-.18,2.19,2.19,0,0,0,.59-.46,2.48,2.48,0,0,0,.4-.66,2.22,2.22,0,0,0,.14-.76V63.38h2.47v9.7h-.59Z"/><path class="cls-2" d="M26.12,73.08H20.47V70.62h5.65a.61.61,0,0,0,.62-.62.33.33,0,0,0-.18-.34,1,1,0,0,0-.44-.08H23.55a3.13,3.13,0,0,1-2.18-.91,3.18,3.18,0,0,1-.66-1,3,3,0,0,1-.24-1.2,3.07,3.07,0,0,1,.24-1.21,3,3,0,0,1,1.64-1.63,3,3,0,0,1,1.2-.24h5v2.46h-5a.58.58,0,0,0-.43.18.6.6,0,0,0-.18.44.64.64,0,0,0,.18.45.58.58,0,0,0,.43.18h2.57a3.16,3.16,0,0,1,1.2.22,3,3,0,0,1,1,.59,2.73,2.73,0,0,1,.66.91A2.85,2.85,0,0,1,29.2,70,3,3,0,0,1,29,71.2a3.08,3.08,0,0,1-1.64,1.64A3,3,0,0,1,26.12,73.08Z"/><path class="cls-2" d="M38.85,73.08H36.38V65.84H35.17V63.38h1.21v-.46a4.18,4.18,0,0,1,.34-1.69,4.32,4.32,0,0,1,.93-1.37A4.45,4.45,0,0,1,39,58.94a4.18,4.18,0,0,1,1.69-.34h1.85v2.46H40.72a2,2,0,0,0-.74.14,1.77,1.77,0,0,0-1,1,1.81,1.81,0,0,0-.15.74v.46h3v2.46h-3Z"/><path class="cls-2" d="M46.32,60.74a1.6,1.6,0,0,1-.49,1.17,1.63,1.63,0,0,1-.53.35,1.53,1.53,0,0,1-.64.13,1.57,1.57,0,0,1-.65-.13,1.75,1.75,0,0,1-.53-.35,1.9,1.9,0,0,1-.35-.52,1.57,1.57,0,0,1-.13-.65,1.51,1.51,0,0,1,.13-.63,1.81,1.81,0,0,1,.35-.53,1.69,1.69,0,0,1,1.18-.48,1.53,1.53,0,0,1,.64.13,1.49,1.49,0,0,1,.53.35,1.64,1.64,0,0,1,.49,1.16ZM45.9,73.08H43.41v-9.7H45.9Z"/><path class="cls-2" d="M50.25,73.08H47.78v-9.7h.6l.81.94a4.34,4.34,0,0,1,2.94-1.13,4.17,4.17,0,0,1,1.68.34,4.49,4.49,0,0,1,1.37.93,4.58,4.58,0,0,1,.93,1.39,4.18,4.18,0,0,1,.34,1.69v5.54H54V67.54a1.72,1.72,0,0,0-.15-.72,1.75,1.75,0,0,0-.4-.6,1.91,1.91,0,0,0-.58-.39,1.83,1.83,0,0,0-1.45,0,1.88,1.88,0,0,0-.6.39,1.91,1.91,0,0,0-.4.6,1.72,1.72,0,0,0-.15.72Z"/><path class="cls-2" d="M67.6,73.08H67l-1-1.33a7.09,7.09,0,0,1-.74.59,5,5,0,0,1-.83.48,4.2,4.2,0,0,1-.9.32,3.57,3.57,0,0,1-.92.12,5.33,5.33,0,0,1-1.93-.34,4.44,4.44,0,0,1-1.57-1,4.78,4.78,0,0,1-1.07-1.61,5.67,5.67,0,0,1-.39-2.17,5.37,5.37,0,0,1,.39-2.07,4.89,4.89,0,0,1,2.64-2.69A5,5,0,0,1,62.65,63a3.71,3.71,0,0,1,.93.12,4.82,4.82,0,0,1,.9.32,5.23,5.23,0,0,1,.82.49,6.32,6.32,0,0,1,.74.61l1-1.15h.6Zm-2.49-4.94a2.7,2.7,0,0,0-.72-1.82,2.86,2.86,0,0,0-.79-.59,2.1,2.1,0,0,0-1-.22,2.77,2.77,0,0,0-1,.17,2.16,2.16,0,0,0-.78.51,2.4,2.4,0,0,0-.52.83,3.43,3.43,0,0,0,0,2.25,2.4,2.4,0,0,0,.52.83,2.29,2.29,0,0,0,.78.51,2.77,2.77,0,0,0,1,.17,2.1,2.1,0,0,0,1-.22,2.86,2.86,0,0,0,.79-.59,2.92,2.92,0,0,0,.53-.84A2.81,2.81,0,0,0,65.11,68.14Z"/><path class="cls-2" d="M72,73.08H69.48v-9.7h.6l.82.94a4.29,4.29,0,0,1,2.93-1.13,4.17,4.17,0,0,1,1.68.34,4.49,4.49,0,0,1,1.37.93,4.24,4.24,0,0,1,.93,1.39,4.18,4.18,0,0,1,.34,1.69v5.54H75.68V67.54a1.89,1.89,0,0,0-.14-.72,1.91,1.91,0,0,0-.4-.6,2,2,0,0,0-.59-.39,1.75,1.75,0,0,0-.72-.15,1.8,1.8,0,0,0-.73.15,1.88,1.88,0,0,0-.6.39,1.91,1.91,0,0,0-.4.6,1.89,1.89,0,0,0-.14.72Z"/><path class="cls-2" d="M87.48,73.08H79.39l4.09-7.22H79.39V63.4h8.09L83.4,70.62h4.08Z"/><path class="cls-2" d="M98.1,73.08h-.6l-1-1.33a7.21,7.21,0,0,1-.75.59,4.59,4.59,0,0,1-.83.48,4.12,4.12,0,0,1-.89.32,3.59,3.59,0,0,1-.93.12,5.32,5.32,0,0,1-1.92-.34,4.57,4.57,0,0,1-1.58-1,4.75,4.75,0,0,1-1.06-1.61,5.67,5.67,0,0,1-.39-2.17,5.37,5.37,0,0,1,.39-2.07,4.84,4.84,0,0,1,1.06-1.63,5,5,0,0,1,1.58-1.06A4.94,4.94,0,0,1,93.14,63a3.73,3.73,0,0,1,.94.12,5,5,0,0,1,.89.32,5.32,5.32,0,0,1,.83.49,7.27,7.27,0,0,1,.74.61l1-1.15h.6Zm-2.49-4.94a2.77,2.77,0,0,0-.73-1.82,2.68,2.68,0,0,0-.78-.59,2.11,2.11,0,0,0-1-.22,2.75,2.75,0,0,0-1,.17,2.16,2.16,0,0,0-.78.51,2.4,2.4,0,0,0-.52.83,3.43,3.43,0,0,0,0,2.25,2.4,2.4,0,0,0,.52.83,2.29,2.29,0,0,0,.78.51,2.75,2.75,0,0,0,1,.17,2.11,2.11,0,0,0,1-.22,2.68,2.68,0,0,0,.78-.59,2.72,2.72,0,0,0,.53-.84A2.61,2.61,0,0,0,95.61,68.14Z"/><path class="cls-2" d="M105.31,73.08H99.66V70.62h5.65a.58.58,0,0,0,.43-.18.6.6,0,0,0,.18-.44.33.33,0,0,0-.18-.34.94.94,0,0,0-.43-.08h-2.57a3.08,3.08,0,0,1-1.21-.25,3,3,0,0,1-1.63-1.65,3,3,0,0,1-.24-1.2,3.07,3.07,0,0,1,.24-1.21,3.11,3.11,0,0,1,.65-1,3.29,3.29,0,0,1,1-.65,3.07,3.07,0,0,1,1.21-.24h5v2.46h-5a.61.61,0,0,0-.62.62.64.64,0,0,0,.18.45.6.6,0,0,0,.44.18h2.57a3.15,3.15,0,0,1,1.19.22,2.85,2.85,0,0,1,1,.59,2.73,2.73,0,0,1,.66.91,2.7,2.7,0,0,1,.25,1.17,2.84,2.84,0,0,1-.25,1.2,3.13,3.13,0,0,1-.66,1,3,3,0,0,1-1,.66A3,3,0,0,1,105.31,73.08Z"/><path class="cls-2" d="M112.74,72.16a5.21,5.21,0,0,1-.07.85,4.92,4.92,0,0,1-.25.91,4,4,0,0,1-.43.85,2.64,2.64,0,0,1-.65.68l-1-.68a2.61,2.61,0,0,0,.38-.55,2.78,2.78,0,0,0,.2-.52,1.67,1.67,0,0,1-.5-.19,1.52,1.52,0,0,1-.41-.34,1.43,1.43,0,0,1-.27-.46,1.49,1.49,0,0,1-.1-.55,1.53,1.53,0,0,1,.12-.6,1.51,1.51,0,0,1,.33-.49,1.76,1.76,0,0,1,.49-.33,1.53,1.53,0,0,1,.6-.12,1.58,1.58,0,0,1,.61.12,1.67,1.67,0,0,1,.5.33,1.47,1.47,0,0,1,.44,1.09Z"/><path class="cls-2" d="M123.65,70.71a1.5,1.5,0,0,0,.29.06h.29a2.37,2.37,0,0,0,.7-.1,3,3,0,0,0,.63-.28,2.52,2.52,0,0,0,.52-.46,2.29,2.29,0,0,0,.38-.59l1.81,1.82a4.73,4.73,0,0,1-.79.88,4.88,4.88,0,0,1-1,.66,4.69,4.69,0,0,1-1.1.41,4.6,4.6,0,0,1-1.18.14,4.77,4.77,0,0,1-1.92-.38,4.63,4.63,0,0,1-1.58-1.06,5,5,0,0,1-1.06-1.61,5.37,5.37,0,0,1-.39-2.07,5.53,5.53,0,0,1,.39-2.1,4.9,4.9,0,0,1,1.06-1.62,4.72,4.72,0,0,1,1.58-1,4.94,4.94,0,0,1,1.92-.37,5.23,5.23,0,0,1,1.19.14,5.42,5.42,0,0,1,1.1.42,5.19,5.19,0,0,1,1.77,1.55Zm1.27-5.1a1.51,1.51,0,0,0-.34-.08,2,2,0,0,0-.35,0,2.31,2.31,0,0,0-1.73.71,2.29,2.29,0,0,0-.52.83,2.94,2.94,0,0,0-.2,1.09c0,.1,0,.2,0,.31s0,.23,0,.35a3.38,3.38,0,0,0,.08.34,1.1,1.1,0,0,0,.12.29Z"/><path class="cls-2" d="M132,73.08h-2.47v-9.7h.6l.81.94a4.34,4.34,0,0,1,2.94-1.13,4.09,4.09,0,0,1,1.67.34,4.42,4.42,0,0,1,1.38.93,4.58,4.58,0,0,1,.93,1.39,4.36,4.36,0,0,1,.34,1.69v5.54h-2.47V67.54a1.72,1.72,0,0,0-.15-.72,1.91,1.91,0,0,0-.4-.6,1.84,1.84,0,0,0-.59-.39,1.71,1.71,0,0,0-.71-.15,1.85,1.85,0,0,0-.74.15,1.74,1.74,0,0,0-.59.39,1.75,1.75,0,0,0-.4.6,1.72,1.72,0,0,0-.15.72Z"/><path class="cls-2" d="M154.52,68.14a5.24,5.24,0,0,1-.39,2,5.11,5.11,0,0,1-1.06,1.62,4.89,4.89,0,0,1-1.57,1.08,4.84,4.84,0,0,1-1.94.39,4.78,4.78,0,0,1-1.92-.39,4.94,4.94,0,0,1-1.58-1.08A5.11,5.11,0,0,1,145,70.17a5.5,5.5,0,0,1,0-4.07,4.86,4.86,0,0,1,2.64-2.7,4.78,4.78,0,0,1,1.92-.39,5,5,0,0,1,1.94.37,4.63,4.63,0,0,1,1.57,1A4.9,4.9,0,0,1,154.13,66,5.46,5.46,0,0,1,154.52,68.14Zm-2.49,0a2.88,2.88,0,0,0-.2-1.08,2.46,2.46,0,0,0-.53-.83,2.37,2.37,0,0,0-.78-.54,2.62,2.62,0,0,0-1.91,0,2.37,2.37,0,0,0-.78.54,2.6,2.6,0,0,0-.52.83,2.88,2.88,0,0,0-.19,1.08,2.76,2.76,0,0,0,.19,1,2.71,2.71,0,0,0,.52.83,2.59,2.59,0,0,0,.78.56,2.44,2.44,0,0,0,1.91,0,2.35,2.35,0,0,0,.78-.53,2.41,2.41,0,0,0,.53-.84A2.85,2.85,0,0,0,152,68.14Z"/><path class="cls-2" d="M158.36,73.08h-2.47v-9.7h.6l.81,1.15a4.34,4.34,0,0,1,2.94-1.13h2.18v2.46h-2.18a1.85,1.85,0,0,0-.74.15,1.75,1.75,0,0,0-.6.4,1.6,1.6,0,0,0-.39.59,1.85,1.85,0,0,0-.15.74Z"/><path class="cls-2" d="M172.76,73.08h-.6l-1-1.33a7.09,7.09,0,0,1-.74.59,5,5,0,0,1-.83.48,4.32,4.32,0,0,1-.89.32,3.71,3.71,0,0,1-.93.12,4.82,4.82,0,0,1-3.5-1.45,5.14,5.14,0,0,1-1.07-1.62,5.31,5.31,0,0,1-.39-2,5.21,5.21,0,0,1,.39-2,5.07,5.07,0,0,1,1.07-1.63,4.89,4.89,0,0,1,1.57-1.08,4.82,4.82,0,0,1,1.93-.39,5.16,5.16,0,0,1,.67.05,3.77,3.77,0,0,1,.68.18,2.8,2.8,0,0,1,.62.32,1.76,1.76,0,0,1,.49.49V59.52h2.49Zm-2.49-4.94a2.59,2.59,0,0,0-.19-1,2.79,2.79,0,0,0-.53-.84,2.86,2.86,0,0,0-.79-.59,2.07,2.07,0,0,0-.95-.22,2.56,2.56,0,0,0-1,.18,2.18,2.18,0,0,0-.78.52,2.49,2.49,0,0,0-.52.83,3.17,3.17,0,0,0-.19,1.1,2.89,2.89,0,0,0,.19,1,2.76,2.76,0,0,0,.52.84,2.46,2.46,0,0,0,.78.57,2.24,2.24,0,0,0,1,.21,2.07,2.07,0,0,0,.95-.22,2.86,2.86,0,0,0,.79-.59,2.92,2.92,0,0,0,.53-.84A2.6,2.6,0,0,0,170.27,68.14Z"/><path class="cls-2" d="M178.51,70.71a1.36,1.36,0,0,0,.29.06h.29a2.26,2.26,0,0,0,.69-.1,2.35,2.35,0,0,0,1.16-.74,2.26,2.26,0,0,0,.37-.59l1.81,1.82a4.41,4.41,0,0,1-.79.88,4.88,4.88,0,0,1-1,.66,4.62,4.62,0,0,1-1.09.41,4.7,4.7,0,0,1-1.18.14,4.78,4.78,0,0,1-1.93-.38,4.73,4.73,0,0,1-1.58-1.06,5,5,0,0,1-1.06-1.61,5.37,5.37,0,0,1-.39-2.07,5.53,5.53,0,0,1,.39-2.1,4.9,4.9,0,0,1,1.06-1.62,4.83,4.83,0,0,1,1.58-1,5,5,0,0,1,1.93-.37,5.15,5.15,0,0,1,1.18.14,5.21,5.21,0,0,1,1.1.42,4.87,4.87,0,0,1,1,.67,4.73,4.73,0,0,1,.79.88Zm1.26-5.1a1.3,1.3,0,0,0-.34-.08,1.88,1.88,0,0,0-.34,0,2.56,2.56,0,0,0-1,.18,2.5,2.5,0,0,0-.78.53,2.6,2.6,0,0,0-.52.83,2.94,2.94,0,0,0-.19,1.09c0,.1,0,.2,0,.31s0,.23,0,.35a3.4,3.4,0,0,0,.07.34,1.58,1.58,0,0,0,.12.29Z"/><path class="cls-2" d="M186.86,73.08h-2.48v-9.7h.6l.82.94a4.5,4.5,0,0,1,1.35-.84,4.43,4.43,0,0,1,1.58-.29,4.17,4.17,0,0,1,1.68.34,4.49,4.49,0,0,1,1.37.93,4.24,4.24,0,0,1,.93,1.39,4.18,4.18,0,0,1,.34,1.69v5.54h-2.47V67.54a1.72,1.72,0,0,0-.15-.72,1.88,1.88,0,0,0-.39-.6,2,2,0,0,0-.59-.39,1.83,1.83,0,0,0-1.45,0,1.88,1.88,0,0,0-.6.39,1.91,1.91,0,0,0-.4.6,1.71,1.71,0,0,0-.14.72Z"/></g></g></svg>